<?xml version="1.0" ?><!DOCTYPE svg  PUBLIC '-//W3C//DTD SVG 1.1//EN'  'http://www.w3.org/Graphics/SVG/1.1/DTD/svg11.dtd'><svg enable-background="new 0 0 154.86 154.86" height="154.86" id="Layer_1" overflow="visible" version="1.1" viewBox="0 0 154.86 154.86" width="154.86" xml:space="preserve" xmlns="http://www.w3.org/2000/svg" xmlns:xlink="http://www.w3.org/1999/xlink"><g id="icon"><circle cx="77.431" cy="77.43" fill="#0173B2" r="77.43"/><path d="M49.975,34.46c-5.85,0-9.686,3.836-9.686,8.881c0,4.932,3.706,8.799,9.438,8.799h0.083   c5.96,0,9.679-3.867,9.679-8.799C59.379,38.296,55.818,34.46,49.975,34.46L49.975,34.46z M100.369,58.063   c-9.095,0-13.095,4.973-15.363,8.479V66.7h-0.151c0.027-0.045,0.123-0.113,0.151-0.158v-7.28H67.889c0.227,4.822,0,51.356,0,51.356   h17.117v-28.72c0-1.533,0.109-3.059,0.563-4.155c1.237-3.069,4.001-6.242,8.723-6.242c6.181,0,8.724,4.692,8.724,11.601v27.517   h17.034V81.184C120.05,65.397,111.608,58.063,100.369,58.063z M41.327,59.262v51.356h17.124V59.262H41.327z" fill="#FFFFFF"/></g></svg>