<?xml version="1.0" ?><!DOCTYPE svg  PUBLIC '-//W3C//DTD SVG 1.1//EN'  'http://www.w3.org/Graphics/SVG/1.1/DTD/svg11.dtd'><svg enable-background="new 0 0 157.936 157.936" height="157.936" id="Layer_1" overflow="visible" version="1.1" viewBox="0 0 157.936 157.936" width="157.936" xml:space="preserve" xmlns="http://www.w3.org/2000/svg" xmlns:xlink="http://www.w3.org/1999/xlink"><g id="icon_2_"><circle cx="78.967" cy="78.967" fill="#3BA6D4" r="78.967"/><path d="M25.813,91.783c7.011,6.491,25.027,12.633,39.68-1.739c-2.636,0.407-4.837-0.084-6.506-1.737   c-1.584-1.57-1.668-3.197-0.828-4.677c0.694-1.202,2.146-2.051,3.576-2.935c-2.594,0.484-4.81,0.231-6.779-0.778   c-2.657-1.356-5.236-2.782-5.959-5.728c1.62-1.707,3.428-3.231,7.333-2.657c-3.673-1.227-6.961-2.829-9.345-5.223   c-2.327-2.334-2.566-3.853-2.938-5.687c2.026-0.75,4.145-1.139,6.415-0.915c-5.132-2.625-7.318-6.239-8.524-10.172   c-0.365-1.191-0.429-2.324-0.273-3.483c20.8,7.852,30.545,13.494,35.929,18.787c2.42-6.438,8.063-21.021,16.496-26.026   c0.035,0.792-0.272,1.647-0.919,2.565c2.496-1.392,4.445-3.621,7.88-3.574c-0.393,1.623-1.527,2.927-3.757,3.758   c2.243-0.862,4.521-1.588,6.877-2.017c2.182-0.396,2.152,1.325,0.918,2.198c-2.51,1.771-5.174,1.991-7.795,2.843   c8.021,0.2,14.582,3.996,19.713,12.279c1.697,2.751,2.841,5.506,3.113,8.524c3.421,0.96,6.828,1.156,10.264,0.551   c0.939-0.168,1.822-0.344,2.657-0.733c-1.34,2.005-2.882,3.653-5.041,4.399c-2.062,0.711-4.137,1.405-6.415,1.465   c3.709,1.406,7.804,1.483,12.01,1.192c-5.146,4.945-9.071,4.826-13.019,4.767c-1.732,7.306-5.266,14.589-12.738,21.256   c-9.801,8.757-20.353,12.928-31.254,13.84c-10.221,0.862-20.099,0.742-30.889-4.305C37.703,104.079,31.001,98.934,25.813,91.783   L25.813,91.783z" fill="#FFFFFF"/></g></svg>